<?xml version="1.0" encoding="utf-8"?>
<!-- Generator: Adobe Illustrator 21.1.0, SVG Export Plug-In . SVG Version: 6.00 Build 0)  -->
<svg version="1.1" id="Capa_1" xmlns="http://www.w3.org/2000/svg" xmlns:xlink="http://www.w3.org/1999/xlink" x="0px" y="0px"
	 viewBox="0 0 792 612" style="enable-background:new 0 0 792 612;" xml:space="preserve">
<style type="text/css">
	.st0{fill:#FFFFFF;}
	.st1{fill:#1D1D1B;}
	.st2{fill:#BAD0DD;}
	.st3{fill:#F4BABA;}
	.st4{fill:#D66E8A;}
	.st5{fill:#DBDBDB;}
</style>
<g>
	<path class="st0" d="M381,348.4c2.8,23.3-3,58.5-25.6,73.3c-22.6,14.8-49.4,11-67.6-4.8c-11.9-10.4-18.8-24.9-23.3-39.6
		c3.8,1,7.6,2.1,11.5,3.1c-14.1-18.1-22.4-40.2-23.5-63c2.3,1.7,5.5,2.4,8.4,1.9c-2.3-14.5-4.6-29-6.9-43.5c3.4,0,6.8,1.1,9.2,3.3
		c-2.9-16.7-4.8-33.7-5.7-50.7c-0.2-3.2,4.7-7.4,5.1-4.2c1.1-19.3,5.7-38.5,13.7-56.6c11.4,11.8,20.7,25.4,27.4,40.2
		c2.5-3.8,5-7.7,7.5-11.5c4.4,15.8,8.8,31.5,13.3,47.3c4.3-4.5,8.5-9,12.8-13.5c3.3,16,5.1,32.4,5.4,48.8c5.1-2.8,10.3-5.6,15.4-8.4
		c6.3,13.7,7.9,29.5,4.6,44.4c4.3-3.9,8.6-7.7,13-11.6c0.8,17.8-1.2,35.8-5.9,53.4C372.3,352.7,376.4,349.7,381,348.4z"/>
	<g>
		<path class="st1" d="M379.2,348.4c3.1,27.9-4.2,62.8-32,75.7c-16.4,7.6-35.7,6.1-51-3.5c-15.8-9.9-24.4-26.7-29.8-44
			c-0.8,0.8-1.5,1.5-2.3,2.3c3.8,1,7.6,2.1,11.5,3.1c1.4,0.4,3.2-1.4,2.1-2.8c-13.8-18-22-39.4-23.3-62c-0.9,0.5-1.9,1.1-2.8,1.6
			c3,1.8,5.9,2.5,9.4,2.1c1.3-0.1,2-1.1,1.8-2.4c-2.3-14.5-4.6-29-6.9-43.5c-0.6,0.8-1.2,1.6-1.8,2.4c3.2,0.1,5.8,1.1,8.3,3
			c1.5,1.1,3-0.7,2.8-2.1c-1.5-9.2-2.8-18.4-3.8-27.7c-0.4-4.2-0.8-8.5-1.2-12.7c-0.1-2-0.3-3.9-0.4-5.9c-0.1-1.3-0.2-2.6-0.2-3.9
			c0.4-1.3,0.9-2.5,1.4-3.7c0.7,2,3.5,1.6,3.7-0.5c1.2-19.2,5.8-37.9,13.4-55.6c-1,0.1-2,0.3-2.9,0.4c11.2,11.7,20.3,25,27.1,39.8
			c0.6,1.4,2.5,1.1,3.2,0c2.5-3.8,5-7.7,7.5-11.5c-1.1-0.1-2.3-0.3-3.4-0.4c4.4,15.8,8.8,31.5,13.3,47.3c0.4,1.3,2.2,1.9,3.1,0.8
			c4.3-4.5,8.5-9,12.8-13.5c-1-0.3-2.1-0.6-3.1-0.8c3.2,15.9,5,32.1,5.3,48.3c0,1.4,1.6,2.3,2.8,1.6c5.1-2.8,10.3-5.6,15.4-8.4
			c-0.9-0.2-1.7-0.4-2.6-0.7c6,13.6,7.5,28.5,4.4,43c-0.4,1.9,1.7,3.1,3.1,1.8c4.3-3.9,8.6-7.7,13-11.6c-1.1-0.4-2.1-0.9-3.2-1.3
			c0.7,17.9-1.3,35.6-5.8,52.9c-0.6,2.1,2.2,3.1,3.4,1.4c2.6-3.6,6-6,10.2-7.4c2.3-0.7,1.3-4.4-1-3.6c-5.2,1.7-9.3,4.7-12.5,9.1
			c1.1,0.5,2.3,1,3.4,1.4c4.6-17.6,6.6-35.7,5.9-53.9c-0.1-1.7-2-2.4-3.2-1.3c-4.3,3.9-8.6,7.7-13,11.6c1,0.6,2.1,1.2,3.1,1.8
			c3.3-15.6,1.7-31.3-4.8-45.9c-0.4-0.9-1.8-1.1-2.6-0.7c-5.1,2.8-10.3,5.6-15.4,8.4c0.9,0.5,1.9,1.1,2.8,1.6
			c-0.3-16.6-2.2-33.1-5.4-49.3c-0.3-1.4-2.2-1.8-3.1-0.8c-4.3,4.5-8.5,9-12.8,13.5c1,0.3,2.1,0.6,3.1,0.8
			c-4.4-15.8-8.8-31.5-13.3-47.3c-0.5-1.6-2.6-1.8-3.4-0.4c-2.5,3.8-5,7.7-7.5,11.5c1.1,0,2.2,0,3.2,0c-6.9-15-16.3-28.6-27.7-40.5
			c-0.8-0.8-2.5-0.7-2.9,0.4c-7.9,18.3-12.7,37.6-13.9,57.5c1.2-0.2,2.5-0.3,3.7-0.5c-0.9-2.7-3.3-3-5.6-1.4
			c-4.1,2.9-3.2,7.6-2.9,12c1,15.2,2.8,30.3,5.4,45.3c0.9-0.7,1.8-1.4,2.8-2.1c-3-2.3-6.4-3.4-10.2-3.5c-1.3-0.1-2,1.2-1.8,2.4
			c2.3,14.5,4.6,29,6.9,43.5c0.6-0.8,1.2-1.6,1.8-2.4c-2.8,0.3-5.1-0.2-7.5-1.6c-1.2-0.7-2.9,0.2-2.8,1.6
			c1.4,23.3,9.6,45.4,23.8,63.9c0.7-0.9,1.4-1.8,2.1-2.8c-3.8-1-7.6-2.1-11.5-3.1c-1.3-0.4-2.7,0.9-2.3,2.3
			c4.4,14,10.7,27.9,21.4,38.2c10.1,9.8,23.4,15.9,37.4,16.7c13.8,0.9,28.2-3.6,38.9-12.4c9.6-7.8,15.5-19.3,19-31
			c3.9-13.2,5.1-27.3,3.5-41C382.7,346,378.9,346,379.2,348.4z"/>
	</g>
</g>
<g>
	<path class="st0" d="M490.7,360.4c-3.8-14.5-3.6-30.6-5-45.8c2.2,1.1,4.6,1.5,7,1.3c-2.1-16.6-5-33.1-8.8-49.4
		c2.1,0.4,4.3-0.1,6.1-1.2c-4.5-14.7-8.3-29.7-11.3-44.8c3.8,0.4,7.5,1.9,10.6,4.2c-1.2-16.9-6.9-33.5-16.4-47.3l1.8-1.5
		c6.5-16.6,8.9-35.1,6.9-52.9c-11.4,1.7-17.4,10.2-26.9,15.5c-11.4,6.4-17.5,4-29.9,4.3c-22.8,0.6-61,9.2-82.3-0.3
		c-12.6-5.6-18.8-17.4-33.8-19.5c-2.1,17.9,0.3,36.3,6.9,52.9l1.8,1.5c-9.5,13.8-15.2,30.4-16.4,47.3c3.1-2.4,6.8-3.8,10.6-4.2
		c-3,15.1-6.8,30.1-11.3,44.8c1.8,1.2,4,1.6,6.1,1.2c-3.8,16.3-6.7,32.8-8.8,49.4c2.4,0.2,4.8-0.3,7-1.3
		c-1.4,14.9-1.4,31.1-4.7,45.7c-3.1,13.4-10.4,24.3-8.2,38.9c1.8,12.3,5.6,26.2,16.5,31.3c28.2,13.1,60.5-3.4,91.3-2.6
		c24,0.6,61.4,22.1,82.6,6.9c21.8-15.6,16.4-49.4,9.6-71C491.3,362.7,491,361.6,490.7,360.4z"/>
	<g>
		<path class="st1" d="M492.5,359.9c-3.7-14.8-3.6-30.2-5-45.3c-0.8,0.6-1.6,1.2-2.4,1.8c2.5,1,4.7,1.4,7.5,1.4c0.9,0,2-0.9,1.9-1.9
			c-2.1-16.8-5.1-33.4-8.8-49.9c-0.6,0.8-1.2,1.6-1.8,2.4c2.7,0.2,4.7-0.3,7.1-1.5c0.7-0.4,1.1-1.4,0.9-2.1
			c-4.5-14.8-8.2-29.7-11.3-44.8c-0.8,0.8-1.5,1.5-2.3,2.3c3.8,0.5,7,1.8,10.2,4c1.1,0.8,2.9-0.3,2.8-1.6
			c-1.4-17.3-7-33.8-16.7-48.2c-0.1,0.8-0.2,1.5-0.3,2.3c2.5-2.1,3.1-4.3,4.2-7.4c1.8-5.4,3.2-10.9,4.2-16.5
			c1.8-10.5,2.1-21.2,1-31.9c-0.1-1.3-1.1-2-2.4-1.8c-12.6,2.2-20.1,13.1-31.5,17.7c-5.6,2.3-11.3,2.3-17.2,2.1
			c-5.9-0.2-11.7,0-17.5,0.6c-12.4,1.1-24.7,2.8-37.1,3.4c-11.8,0.5-24.9,0.7-35.7-4.6c-11.8-5.8-19.4-16.8-33-19.1
			c-1.3-0.2-2.2,0.5-2.4,1.8c-1.1,10.6-0.8,21.3,1,31.9c0.9,5.3,2.2,10.5,3.9,15.7c1.1,3.4,1.7,6,4.4,8.2c-0.1-0.8-0.2-1.5-0.3-2.3
			c-9.7,14.4-15.3,30.9-16.7,48.2c-0.1,1.4,1.7,2.4,2.8,1.6c3.2-2.2,6.4-3.5,10.2-4c-0.8-0.8-1.5-1.5-2.3-2.3
			c-3.1,15.1-6.8,30-11.3,44.8c-0.2,0.8,0.1,1.7,0.9,2.1c2.4,1.2,4.3,1.7,7.1,1.5c-0.6-0.8-1.2-1.6-1.8-2.4
			c-3.8,16.5-6.7,33.1-8.8,49.9c-0.1,1,1,1.9,1.9,1.9c2.7,0,4.9-0.4,7.5-1.4c-0.8-0.6-1.6-1.2-2.4-1.8c-1.5,16.3-1.1,33.3-5.7,49.2
			c-3.8,13.2-9.2,24.6-6.8,38.6c1.8,10.7,5.5,23.4,15.7,29.1c12,6.6,26.9,6.6,40.1,5.1c15-1.8,29.8-5.7,44.9-6.7
			c12.7-0.8,24.4,2.2,36.5,5.5c20.2,5.5,46.7,13.7,62.4-5.4C506.1,410.4,498.6,382,492.5,359.9c-0.6-2.3-4.3-1.3-3.6,1
			c5.4,19.6,12.2,43.3,1.1,62.3c-13.1,22.5-40.6,14.3-60.9,8.7c-9.7-2.7-19.6-5.7-29.7-6c-13.3-0.4-26.5,2.4-39.5,4.7
			c-13.7,2.4-28.1,4.7-41.9,1.3c-5.8-1.4-11.7-3.6-15.7-8.3c-4.2-5.1-6.2-11.7-7.6-18c-1.6-7.4-2-14.5-0.1-22
			c1.8-7.2,4.9-14,6.8-21.2c3.9-15.6,3.7-31.9,5.2-47.8c0.1-1.1-1.3-2.2-2.4-1.8c-2.2,0.9-4.1,1.3-6.5,1.2c0.6,0.6,1.3,1.3,1.9,1.9
			c2.1-16.5,5-32.8,8.7-48.9c0.3-1.1-0.5-2.5-1.8-2.4c-1.8,0.3-3.5,0-5.2-1c0.3,0.7,0.6,1.4,0.9,2.1c4.5-14.8,8.2-29.7,11.3-44.8
			c0.3-1.5-0.9-2.5-2.3-2.3c-4.1,0.6-7.7,2-11.1,4.4c0.9,0.5,1.9,1.1,2.8,1.6c1.3-16.7,6.8-32.5,16.2-46.4c0.4-0.6,0.3-1.8-0.3-2.3
			c-2.7-2.2-3.3-5.9-4.3-9.2c-1.4-4.6-2.5-9.3-3.2-14c-1.6-9.9-1.7-20-0.7-30c-0.8,0.6-1.6,1.2-2.4,1.8
			c12.9,2.2,20.4,12.6,31.5,18.4c9.8,5.1,21.4,5.8,32.3,5.7c13.1-0.2,26-1.9,39-3.2c5.7-0.6,11.4-1,17.2-1c5.4,0,10.9,0.6,16.3-0.3
			c14.8-2.5,23.2-17,37.8-19.6c-0.8-0.6-1.6-1.2-2.4-1.8c1.1,10,0.9,20-0.7,30c-0.8,4.7-1.8,9.4-3.2,14c-1,3.3-1.6,6.9-4.3,9.2
			c-0.6,0.5-0.7,1.6-0.3,2.3c9.3,13.9,14.8,29.7,16.2,46.4c0.9-0.5,1.9-1.1,2.8-1.6c-3.4-2.4-7-3.8-11.1-4.4
			c-1.4-0.2-2.6,0.8-2.3,2.3c3.1,15.1,6.8,30,11.3,44.8c0.3-0.7,0.6-1.4,0.9-2.1c-1.6,1-3.4,1.3-5.2,1c-1.3-0.1-2.1,1.3-1.8,2.4
			c3.7,16.2,6.6,32.5,8.7,48.9c0.6-0.6,1.3-1.3,1.9-1.9c-2.3,0-4.3-0.4-6.5-1.2c-1.1-0.4-2.5,0.7-2.4,1.8
			c1.4,15.5,1.3,31.1,5.1,46.3C489.5,363.3,493.1,362.3,492.5,359.9z"/>
	</g>
</g>
<g>
	<circle class="st2" cx="354.6" cy="216.1" r="20.9"/>
	<g>
		<path class="st1" d="M373.6,216.1c-0.4,11.6-13.8,24.8-25.3,16.6c-4-2.9-7.1-7.2-9.6-11.4c-0.8-1.4-1.6-2.7-2.3-4.1
			c-0.4-0.7-1-3-1-1.1c0,1.8,0.6-0.4,1-1.1c0.7-1.4,1.5-2.8,2.3-4.1c2.4-4,5.2-8,8.9-10.8C359.2,191.2,373.2,204,373.6,216.1
			c0.1,2.4,3.8,2.4,3.8,0c-0.4-11.3-8.3-21-19.8-22.5c-10-1.3-16.8,6.9-21.6,14.6c-1.2,2-3.3,4.7-3.8,7c-0.5,2.1,1,4,2,5.8
			c4,7.2,10.3,16.8,19.3,17.8c13.1,1.4,23.5-10.3,23.9-22.6C377.5,213.7,373.7,213.7,373.6,216.1z"/>
	</g>
</g>
<g>
	<path class="st2" d="M455.5,216.1c0,0-9.3,20.9-20.9,20.9c-11.5,0-20.9-9.3-20.9-20.9s9.3-20.9,20.9-20.9
		C446.1,195.3,455.5,216.1,455.5,216.1z"/>
	<g>
		<path class="st1" d="M453.8,215.2c-2.8,6.2-6.8,12.8-12.3,17c-11.2,8.6-26-3.8-25.9-16.1c0.1-11.7,14-24.6,25.3-16.6
			c5.8,4.1,10,11.1,12.9,17.5c1,2.2,4.2,0.3,3.2-1.9c-2.9-6.5-7.1-13.1-12.6-17.6c-7.9-6.5-18.9-4.5-25.9,2.5
			c-7.8,7.8-8.8,20.4-2.4,29.3c5.4,7.5,16.7,12.4,25.4,7.4c7.1-4.1,12.2-12.4,15.5-19.7C458.1,214.9,454.8,213,453.8,215.2z"/>
	</g>
</g>
<g>
	<path class="st0" d="M326.7,330.4c1.9,33.6,6.4,67.1,13.5,99.9c0.8,3.5,1.8,7.3,4.6,9.3c2.1,1.4,4.7,1.6,7.1,1.6
		c6.9,0.3,14,0.5,20.3-2.4s11.4-9.9,10-16.9c-0.9-4.5-4.2-8-6.4-12.1c-3.4-6.5-3.8-14.2-4.1-21.6c-0.6-16.6-1.2-33.3-1.9-49.9"/>
	<g>
		<path class="st1" d="M324.9,330.4c1.1,18.6,2.9,37.1,5.6,55.5c1.3,9.3,2.9,18.5,4.6,27.8c0.8,4.4,1.7,8.9,2.6,13.3
			c0.7,3.6,1.3,7.5,3.1,10.7c3.3,5.7,9.8,5.5,15.6,5.6c7.1,0.1,14.7-0.6,20.5-5c4.6-3.5,7.9-9.1,7.5-14.9
			c-0.5-7.3-6.8-12.6-8.8-19.4c-2.9-10-2.1-21.3-2.4-31.6c-0.4-11.3-0.8-22.6-1.3-34c-0.1-2.4-3.8-2.4-3.8,0
			c0.4,10.7,0.8,21.3,1.2,32c0.4,9.5,0.1,19.3,1.5,28.8c0.6,4.1,1.6,8.1,3.5,11.7c2,3.8,5.4,7.2,6.2,11.6
			c2.1,11.8-11.5,16.8-20.7,17.1c-4.1,0.1-11.4,1-14.6-2c-3.2-3-3.5-9.4-4.4-13.4c-2.1-10.1-3.9-20.3-5.5-30.5
			c-3.3-20.9-5.5-42-6.7-63.2C328.5,328,324.7,328,324.9,330.4L324.9,330.4z"/>
	</g>
</g>
<g>
	<path class="st0" d="M456.2,330.4c-1.9,33.6-6.4,67.1-13.5,99.9c-0.8,3.5-1.8,7.3-4.6,9.3c-2.1,1.4-4.7,1.6-7.1,1.6
		c-6.9,0.3-14,0.5-20.3-2.4s-11.4-9.9-10-16.9c0.9-4.5,4.2-8,6.4-12.1c3.4-6.5,3.8-14.2,4.1-21.6c0.6-16.6,1.2-33.3,1.9-49.9"/>
	<g>
		<path class="st1" d="M454.3,330.4c-1.2,21.2-3.4,42.2-6.7,63.2c-1.6,10.2-3.5,20.4-5.5,30.5c-0.8,4-1.2,10.4-4.4,13.4
			c-3.2,3-10.5,2.2-14.6,2c-9.2-0.3-22.8-5.3-20.7-17.1c0.8-4.4,4.2-7.8,6.2-11.6c1.9-3.7,2.9-7.7,3.5-11.7
			c1.3-9.5,1.1-19.2,1.5-28.8c0.4-10.7,0.8-21.3,1.2-32c0.1-2.4-3.7-2.4-3.8,0c-0.7,19.1-0.4,38.6-2.3,57.7
			c-0.5,4.8-1.4,9.3-3.7,13.6c-1.7,3-3.9,5.7-5.3,9c-2.3,5.7-1,11.7,2.9,16.4c4.3,5.2,10.5,7.4,17,8.1c5.7,0.6,14.8,1.6,19.7-2.1
			c5.5-4.1,5.9-13.6,7.1-19.6c1.8-9.2,3.5-18.4,4.9-27.7c3.3-21,5.5-42.1,6.7-63.2C458.2,328,454.4,328,454.3,330.4L454.3,330.4z"/>
	</g>
</g>
<g>
	<g>
		<path class="st1" d="M351.5,266.4c7.9,7.1,19.6,7.7,28.9,2.8c10.7-5.7,16.2-17.7,17.8-29.2c0.3-2.4-3.3-3.4-3.6-1
			c-1.3,9.7-5.3,19.8-13.8,25.6c-8,5.4-19.3,5.8-26.7-0.8C352.4,262.1,349.7,264.8,351.5,266.4L351.5,266.4z"/>
	</g>
</g>
<g>
	<g>
		<path class="st1" d="M439.5,264.4c-7.4,6.6-18.7,6.2-26.7,0.8c-8.4-5.8-12.4-15.8-13.8-25.6c-0.3-2.4-3.9-1.4-3.6,1
			c1.6,11.5,7.1,23.6,17.8,29.2c9.3,4.9,20.9,4.3,28.9-2.8C443.9,265.4,441.3,262.8,439.5,264.4L439.5,264.4z"/>
	</g>
</g>
<g>
	<circle class="st3" cx="397.2" cy="237.3" r="8.4"/>
	<g>
		<path class="st1" d="M403.8,237.3c-0.5,8.4-13.1,8.4-13.1,0C390.7,228.9,403.3,229,403.8,237.3c0.1,2.4,3.9,2.4,3.8,0
			c-0.3-5.6-4.5-10.3-10.3-10.3c-5.6,0-10.3,4.7-10.3,10.3c0,5.4,4.4,10,9.8,10.3c6,0.3,10.4-4.5,10.7-10.3
			C407.7,234.9,403.9,234.9,403.8,237.3z"/>
	</g>
</g>
<circle cx="352.8" cy="221.3" r="13.1"/>
<circle cx="428.2" cy="221.3" r="13.1"/>
<g>
	<path class="st4" d="M423.4,268.8c-1.9-3.9-3.8-8.1-3.4-12.4c0.4-4.3,3.9-8.7,8.2-8.4c4,0.3,6.7,4.5,6.9,8.4
		c0.2,4-1.5,7.8-3.1,11.4"/>
	<g>
		<path class="st1" d="M425,267.9c-2.2-4.8-6.5-15.8,1.6-17.9c3.8-1,6.4,3.2,6.6,6.4c0.3,3.6-1.4,7.3-2.9,10.4
			c-1,2.2,2.2,4.1,3.2,1.9c2.2-5,4.7-10.6,2.6-16c-1.4-3.7-4.9-6.9-9.1-6.6c-4.1,0.3-7.4,3.8-8.5,7.6c-1.7,5.5,0.9,11.1,3.2,16
			C422.8,271.9,426,270,425,267.9L425,267.9z"/>
	</g>
</g>
<g>
	<path class="st5" d="M246.5,421.9c9.6,0.7,16.6,11.1,15.4,20.7S253,460,244,463.4c-9,3.4-19,3.1-28.5,1.3
		c-18.9-3.5-36.7-12.3-50.9-25.2c6-3.3,11.3-7.7,15.7-13l-0.1-3.2c-11-1.4-18.7-14.2-15.3-24.7c3.4-10.5,16.5-16.4,26.8-12.5
		c10.3,4,16.1,16.6,12.9,27.2c0.8-7,2.9-14.2,7.7-19.3c4.9-5.1,13.2-7.4,19.2-3.7c2.6,1.6,4.5,4,6.3,6.5c4.7,6.7,8.6,14.6,7.7,22.8
		s-8,16-16.1,15.1"/>
	<g>
		<path class="st1" d="M246.5,423.8c11.9,1.4,16.4,15.6,11.4,25.3c-5.6,10.9-18.2,15.2-29.8,15.1c-22.7-0.2-45.5-11-62.2-25.9
			c-0.1,1-0.3,2-0.4,2.9c4.8-2.8,9.3-6.1,13.2-10.1c2.9-3,3.4-3.8,3.3-7.7c0-0.8-0.6-1.7-1.4-1.8C164,418.8,161,396.3,176,389
			c15.8-7.7,31,8.1,26.8,24c1.2,0.2,2.5,0.3,3.7,0.5c0.9-7.2,3.1-15.1,9.2-19.7c7.6-5.7,15.4-3.2,20.6,4.1
			c4.1,5.8,7.8,12.8,7.6,20.2c-0.3,7.7-6.2,15.3-14.4,14.8c-2.4-0.1-2.4,3.6,0,3.8c8.6,0.5,15.7-6.3,17.6-14.4
			c2.3-10.2-3.2-21-9.4-28.7c-5.5-6.8-13.9-8.7-21.7-4.4c-8.9,4.8-12,15-13.2,24.3c-0.3,2.1,3.2,2.5,3.7,0.5
			c5.1-19-13.7-37.6-32.3-28.2c-7.9,4-13,12-11.8,21c1.2,9.1,8.1,17,17.3,18.5c-0.5-0.6-0.9-1.2-1.4-1.8c0,0.7,0.4,2.2,0.1,2.9
			c-0.4,1-2.7,2.5-3.5,3.4c-3.4,3.3-7.2,6-11.2,8.3c-1,0.6-1.3,2.1-0.4,2.9c10.5,9.4,22.6,16.7,35.9,21.4
			c13.5,4.8,29.6,8.1,43.6,3.5c10.6-3.5,20.6-12.7,21.1-24.5c0.4-10.4-7-20-17.4-21.3C244.1,419.8,244.1,423.5,246.5,423.8
			L246.5,423.8z"/>
	</g>
</g>
<g>
	<g>
		<path class="st1" d="M164.1,439.1c-0.7-0.9-1.4-1.8-2.1-2.6c-0.4-0.6-1.2-0.6-1.8-0.5c-3.1,0.5-4.7,4.5-3,7
			c1.8,2.7,6.2,2.4,7.8-0.4c1.2-2.1-2-4-3.2-1.9c-0.2,0.3-0.4,0.4-0.6,0.4c-0.4,0-0.3,0-0.7-0.1c0,0-0.1-0.1-0.1-0.1
			c-0.1-0.2-0.1-0.5,0-0.7c0.2-0.5,0.4-0.6,0.9-0.6c-0.6-0.2-1.2-0.3-1.8-0.5c0.7,0.9,1.4,1.8,2.1,2.6c0.6,0.8,2,0.7,2.7,0
			C164.9,440.9,164.7,439.9,164.1,439.1L164.1,439.1z"/>
	</g>
</g>
<g>
	<g>
		<path class="st1" d="M206.5,432.8c2.4,0,2.4-3.8,0-3.8C204.1,429,204.1,432.8,206.5,432.8L206.5,432.8z"/>
	</g>
</g>
<g>
	<g>
		<path class="st1" d="M185.9,427.4c2.4,0,2.4-3.8,0-3.8C183.5,423.7,183.5,427.4,185.9,427.4L185.9,427.4z"/>
	</g>
</g>
<g>
	<g>
		<path class="st1" d="M265.9,442.6c2.3-3.7,6.8-5.1,11-4.1c5.2,1.2,5.6,5.4,8.4,9.1c4.6,6.2,12.5,3.4,18.2,0.5
			c2.2-1.1,0.3-4.3-1.9-3.2c-2.6,1.3-5.9,3.1-8.9,2.7c-4.5-0.5-5.1-4.2-7-7.3c-1.6-2.5-3.9-4.2-6.7-5.1c-6.1-2-12.8,0.1-16.3,5.6
			C261.4,442.7,264.6,444.6,265.9,442.6L265.9,442.6z"/>
	</g>
</g>
</svg>
